<svg width="68" height="71" viewBox="0 0 68 71" fill="none" xmlns="http://www.w3.org/2000/svg">
<g filter="url(#filter0_d_36_121)">
<g filter="url(#filter1_d_36_121)">
<circle cx="34" cy="34" r="29" fill="#1F1F1F"/>
</g>
<g filter="url(#filter2_d_36_121)">
<path d="M15.5327 41V30.5H20.4977C21.6577 30.5 22.6777 30.715 23.5577 31.145C24.4377 31.575 25.1227 32.18 25.6127 32.96C26.1127 33.74 26.3627 34.67 26.3627 35.75C26.3627 36.82 26.1127 37.75 25.6127 38.54C25.1227 39.32 24.4377 39.925 23.5577 40.355C22.6777 40.785 21.6577 41 20.4977 41H15.5327ZM18.5027 38.63H20.3777C20.9777 38.63 21.4977 38.52 21.9377 38.3C22.3877 38.07 22.7377 37.74 22.9877 37.31C23.2377 36.87 23.3627 36.35 23.3627 35.75C23.3627 35.14 23.2377 34.62 22.9877 34.19C22.7377 33.76 22.3877 33.435 21.9377 33.215C21.4977 32.985 20.9777 32.87 20.3777 32.87H18.5027V38.63ZM28.3188 41L32.9538 30.5H35.8788L40.5288 41H37.4388L33.8088 31.955H34.9788L31.3488 41H28.3188ZM30.8538 38.96L31.6188 36.77H36.7488L37.5138 38.96H30.8538ZM48.2743 41.21C47.4443 41.21 46.6743 41.08 45.9643 40.82C45.2543 40.55 44.6393 40.17 44.1193 39.68C43.6093 39.19 43.2093 38.615 42.9193 37.955C42.6293 37.285 42.4843 36.55 42.4843 35.75C42.4843 34.95 42.6293 34.22 42.9193 33.56C43.2093 32.89 43.6143 32.31 44.1343 31.82C44.6543 31.33 45.2693 30.955 45.9793 30.695C46.6993 30.425 47.4843 30.29 48.3343 30.29C49.3243 30.29 50.2093 30.455 50.9893 30.785C51.7693 31.115 52.4143 31.59 52.9243 32.21L51.0343 33.92C50.6743 33.53 50.2843 33.24 49.8643 33.05C49.4543 32.85 48.9943 32.75 48.4843 32.75C48.0343 32.75 47.6243 32.82 47.2543 32.96C46.8843 33.1 46.5693 33.305 46.3093 33.575C46.0493 33.835 45.8443 34.15 45.6943 34.52C45.5543 34.88 45.4843 35.29 45.4843 35.75C45.4843 36.19 45.5543 36.595 45.6943 36.965C45.8443 37.335 46.0493 37.655 46.3093 37.925C46.5693 38.185 46.8793 38.39 47.2393 38.54C47.6093 38.68 48.0143 38.75 48.4543 38.75C48.8943 38.75 49.3243 38.68 49.7443 38.54C50.1643 38.39 50.5893 38.14 51.0193 37.79L52.6843 39.875C52.0843 40.305 51.3893 40.635 50.5993 40.865C49.8093 41.095 49.0343 41.21 48.2743 41.21ZM50.0593 39.485V35.525H52.6843V39.875L50.0593 39.485Z" fill="white"/>
</g>
<path d="M28.6311 47.495C29.1511 47.495 29.5494 47.5883 29.8261 47.775C30.1028 47.9583 30.2411 48.245 30.2411 48.635C30.2411 48.8783 30.1844 49.0767 30.0711 49.23C29.9611 49.38 29.8011 49.4983 29.5911 49.585C29.6611 49.6717 29.7344 49.7717 29.8111 49.885C29.8878 49.995 29.9628 50.1117 30.0361 50.235C30.1128 50.355 30.1861 50.4817 30.2561 50.615C30.3261 50.745 30.3911 50.8733 30.4511 51H29.5761C29.5128 50.8867 29.4478 50.7717 29.3811 50.655C29.3178 50.5383 29.2511 50.425 29.1811 50.315C29.1144 50.205 29.0478 50.1017 28.9811 50.005C28.9144 49.905 28.8478 49.815 28.7811 49.735H28.3961V51H27.6161V47.585C27.7861 47.5517 27.9611 47.5283 28.1411 47.515C28.3244 47.5017 28.4878 47.495 28.6311 47.495ZM28.6761 48.16C28.6194 48.16 28.5678 48.1617 28.5211 48.165C28.4778 48.1683 28.4361 48.1717 28.3961 48.175V49.115H28.6161C28.9094 49.115 29.1194 49.0783 29.2461 49.005C29.3728 48.9317 29.4361 48.8067 29.4361 48.63C29.4361 48.46 29.3711 48.34 29.2411 48.27C29.1144 48.1967 28.9261 48.16 28.6761 48.16ZM31.4011 51V47.535H33.7411V48.19H32.1811V48.87H33.5661V49.51H32.1811V50.345H33.8561V51H31.4011ZM37.2083 51C36.985 50.6033 36.7433 50.2117 36.4833 49.825C36.2233 49.4383 35.9466 49.0733 35.6533 48.73V51H34.8833V47.535H35.5183C35.6283 47.645 35.75 47.78 35.8833 47.94C36.0166 48.1 36.1516 48.2717 36.2883 48.455C36.4283 48.635 36.5666 48.8233 36.7033 49.02C36.84 49.2133 36.9683 49.4 37.0883 49.58V47.535H37.8633V51H37.2083ZM41.6826 47.535V48.2H40.6376V51H39.8576V48.2H38.8126V47.535H41.6826Z" fill="#E00101"/>
</g>
<defs>
<filter id="filter0_d_36_121" x="1" y="5" width="66" height="66" filterUnits="userSpaceOnUse" color-interpolation-filters="sRGB">
<feFlood flood-opacity="0" result="BackgroundImageFix"/>
<feColorMatrix in="SourceAlpha" type="matrix" values="0 0 0 0 0 0 0 0 0 0 0 0 0 0 0 0 0 0 127 0" result="hardAlpha"/>
<feOffset dy="4"/>
<feGaussianBlur stdDeviation="2"/>
<feComposite in2="hardAlpha" operator="out"/>
<feColorMatrix type="matrix" values="0 0 0 0 0 0 0 0 0 0 0 0 0 0 0 0 0 0 0.25 0"/>
<feBlend mode="normal" in2="BackgroundImageFix" result="effect1_dropShadow_36_121"/>
<feBlend mode="normal" in="SourceGraphic" in2="effect1_dropShadow_36_121" result="shape"/>
</filter>
<filter id="filter1_d_36_121" x="0.5" y="0.5" width="67" height="67" filterUnits="userSpaceOnUse" color-interpolation-filters="sRGB">
<feFlood flood-opacity="0" result="BackgroundImageFix"/>
<feColorMatrix in="SourceAlpha" type="matrix" values="0 0 0 0 0 0 0 0 0 0 0 0 0 0 0 0 0 0 127 0" result="hardAlpha"/>
<feOffset/>
<feGaussianBlur stdDeviation="2.25"/>
<feComposite in2="hardAlpha" operator="out"/>
<feColorMatrix type="matrix" values="0 0 0 0 0.991667 0 0 0 0 0 0 0 0 0 0 0 0 0 0.66 0"/>
<feBlend mode="normal" in2="BackgroundImageFix" result="effect1_dropShadow_36_121"/>
<feBlend mode="normal" in="SourceGraphic" in2="effect1_dropShadow_36_121" result="shape"/>
</filter>
<filter id="filter2_d_36_121" x="7.73271" y="22.49" width="52.9916" height="26.5199" filterUnits="userSpaceOnUse" color-interpolation-filters="sRGB">
<feFlood flood-opacity="0" result="BackgroundImageFix"/>
<feColorMatrix in="SourceAlpha" type="matrix" values="0 0 0 0 0 0 0 0 0 0 0 0 0 0 0 0 0 0 127 0" result="hardAlpha"/>
<feOffset/>
<feGaussianBlur stdDeviation="3.9"/>
<feComposite in2="hardAlpha" operator="out"/>
<feColorMatrix type="matrix" values="0 0 0 0 0.820833 0 0 0 0 0.608238 0 0 0 0 0.0615625 0 0 0 0.42 0"/>
<feBlend mode="normal" in2="BackgroundImageFix" result="effect1_dropShadow_36_121"/>
<feBlend mode="normal" in="SourceGraphic" in2="effect1_dropShadow_36_121" result="shape"/>
</filter>
</defs>
</svg>
